<?xml version="1.0" ?><svg id="Layer_1" style="enable-background:new 0 0 24 24;" version="1.1" viewBox="0 0 24 24" xml:space="preserve" xmlns="http://www.w3.org/2000/svg" xmlns:xlink="http://www.w3.org/1999/xlink"><g><path d="M21.71,1C17.312,1,12,4.158,12,8.08c0,0.913,0.345,1.742,0.992,2.479   c-0.656,1.682-0.982,3.618-0.992,5.839c-0.176-0.464-0.383-0.906-0.606-1.335C11.789,14.455,12,13.793,12,13.08   C12,9.158,6.688,6,2.29,6C1.579,6,1,6.579,1,7.29C1,11.688,4.158,17,8.081,17c0.971,0,1.85-0.381,2.622-1.113   C11.577,17.733,12,19.911,12,22.5c0,0.276,0.224,0.5,0.5,0.5s0.5-0.224,0.5-0.5v-6c0-1.983,0.257-3.703,0.78-5.205   C14.43,11.761,15.146,12,15.919,12C19.842,12,23,6.688,23,2.29C23,1.579,22.421,1,21.71,1z" style="fill:#303C42;"/><path d="M10.096,15.096C9.496,15.696,8.817,16,8.081,16C4.806,16,2,11.21,2,7.29C2,7.13,2.13,7,2.29,7   C6.21,7,11,9.806,11,13.08c0,0.336-0.071,0.657-0.197,0.966c-1.365-2.089-3.379-3.734-6.092-5C4.461,8.932,4.164,9.04,4.047,9.289   C3.93,9.539,4.038,9.836,4.289,9.953c2.717,1.268,4.663,2.897,5.923,5.006C10.171,15.004,10.14,15.052,10.096,15.096z" style="fill:#7CB342;"/><path d="M2.229,7.79c0-0.16,0.13-0.29,0.29-0.29c3.165,0,6.892,1.829,8.214,4.256   C9.684,9.085,5.668,7,2.29,7C2.13,7,2,7.13,2,7.29c0,1.532,0.432,3.193,1.149,4.653C2.572,10.61,2.229,9.149,2.229,7.79z" style="opacity:0.2;fill:#FFFFFF;"/><path d="M15.919,11c-0.632,0-1.217-0.237-1.75-0.679c1.066-2.319,2.882-4.057,5.552-5.372   c0.248-0.122,0.35-0.422,0.228-0.669c-0.123-0.248-0.423-0.349-0.669-0.228c-2.722,1.34-4.643,3.137-5.827,5.481   C13.158,9.081,13,8.596,13,8.08C13,4.806,17.79,2,21.71,2C21.87,2,22,2.13,22,2.29C22,6.21,19.194,11,15.919,11z" style="fill:#7CB342;"/><path d="M13.281,8.361c0-3.274,4.79-6.08,8.71-6.08c0.002,0,0.004,0.002,0.006,0.002   C21.994,2.127,21.868,2,21.71,2C17.79,2,13,4.806,13,8.08c0,0.516,0.158,1,0.453,1.452c0.02-0.04,0.045-0.077,0.065-0.116   C13.365,9.08,13.281,8.729,13.281,8.361z" style="opacity:0.2;fill:#FFFFFF;"/><linearGradient gradientUnits="userSpaceOnUse" id="SVGID_1_" x1="1.9785" x2="19.1709" y1="4.9056" y2="12.9226"><stop offset="0" style="stop-color:#FFFFFF;stop-opacity:0.2"/><stop offset="1" style="stop-color:#FFFFFF;stop-opacity:0"/></linearGradient><path d="M21.71,1C17.312,1,12,4.158,12,8.08c0,0.913,0.345,1.742,0.992,2.479   c-0.656,1.682-0.982,3.618-0.992,5.839c-0.176-0.464-0.383-0.906-0.606-1.335C11.789,14.455,12,13.793,12,13.08   C12,9.158,6.688,6,2.29,6C1.579,6,1,6.579,1,7.29C1,11.688,4.158,17,8.081,17c0.971,0,1.85-0.381,2.622-1.113   C11.577,17.733,12,19.911,12,22.5c0,0.276,0.224,0.5,0.5,0.5s0.5-0.224,0.5-0.5v-6c0-1.983,0.257-3.703,0.78-5.205   C14.43,11.761,15.146,12,15.919,12C19.842,12,23,6.688,23,2.29C23,1.579,22.421,1,21.71,1z" style="fill:url(#SVGID_1_);"/></g><g/><g/><g/><g/><g/><g/><g/><g/><g/><g/><g/><g/><g/><g/><g/></svg>