<?xml version="1.0" ?><svg id="Layer_1" style="enable-background:new 0 0 24 24;" version="1.1" viewBox="0 0 24 24" xml:space="preserve" xmlns="http://www.w3.org/2000/svg" xmlns:xlink="http://www.w3.org/1999/xlink"><g><path d="M20.667,3.028l-8.5-3c-0.107-0.038-0.226-0.038-0.333,0l-8.5,3C3.134,3.099,3,3.288,3,3.5v6   c0,7.765,1.151,10.603,8.775,14.446C11.846,23.982,11.923,24,12,24s0.154-0.018,0.225-0.054C19.849,20.103,21,17.265,21,9.5v-6   C21,3.288,20.866,3.099,20.667,3.028z" style="fill:#303C42;"/><path d="M12,1.03L4,3.854V9.5c0,0.905,0.015,1.733,0.052,2.5H12V1.03z" style="fill:#7CB342;"/><path d="M19.948,12C19.985,11.233,20,10.405,20,9.5V3.854L12,1.03V12H19.948z" style="fill:#546E7A;"/><path d="M12,12v10.94c6.194-3.158,7.678-5.402,7.948-10.94H12z" style="fill:#7CB342;"/><path d="M4.052,12c0.27,5.538,1.754,7.782,7.948,10.94V12H4.052z" style="fill:#546E7A;"/><polygon points="4,9 11.953,1.047 8.089,2.411 4,6.5  " style="opacity:0.2;fill:#FFFFFF;"/><path d="M12,22c-7.052-3.595-8-6.002-8-13.439V9.5c0,7.437,0.948,9.844,8,13.439   c7.052-3.595,8-6.002,8-13.439V8.561C20,15.998,19.052,18.405,12,22z" style="opacity:0.1;"/><path d="M6.5,12.08c0,0.822,0.279,1.576,0.804,2.257c-0.29,0.629-0.557,1.288-0.781,2.016   c-0.082,0.264,0.066,0.543,0.33,0.625C6.901,16.993,6.951,17,7,17c0.214,0,0.411-0.138,0.478-0.353   c0.171-0.552,0.364-1.06,0.571-1.548c0.71,0.586,1.502,0.9,2.371,0.9c3.922,0,7.08-5.312,7.08-9.71C17.5,5.578,16.921,5,16.21,5   C11.812,5,6.5,8.158,6.5,12.08z" style="fill:#303C42;"/><linearGradient gradientUnits="userSpaceOnUse" id="SVGID_1_" x1="11.8538" x2="18.772" y1="11.0197" y2="17.9379"><stop offset="0" style="stop-color:#000000;stop-opacity:0.1"/><stop offset="1" style="stop-color:#000000;stop-opacity:0"/></linearGradient><path d="M17.288,5.585l-0.016,0.017C17.404,5.804,17.5,6.031,17.5,6.289   c0,4.398-3.158,9.71-7.08,9.71c-0.869,0-1.661-0.315-2.371-0.9c-0.207,0.487-0.401,0.996-0.571,1.548C7.411,16.862,7.214,17,7,17   c-0.011,0-0.022-0.004-0.033-0.005L6.965,17l5.65,5.617c5.668-2.992,7.073-5.271,7.333-10.617C19.985,11.233,20,10.405,20,9.5   V8.297L17.288,5.585z" style="fill:url(#SVGID_1_);"/><path d="M7.5,12.08C7.5,8.806,12.289,6,16.21,6c0.16,0,0.29,0.13,0.29,0.29c0,3.921-2.806,8.71-6.08,8.71   c-0.707,0-1.357-0.287-1.938-0.839c1.19-2.275,2.95-3.839,5.739-5.213c0.248-0.122,0.35-0.422,0.228-0.669   c-0.122-0.248-0.421-0.349-0.669-0.228c-2.803,1.38-4.664,3.011-5.952,5.262C7.618,12.924,7.5,12.514,7.5,12.08z" style="fill:#7CB342;"/><path d="M7.812,12.08c0-3.197,4.562-5.939,8.427-6.068C16.228,6.011,16.222,6,16.21,6   C12.289,6,7.5,8.806,7.5,12.08c0,0.434,0.118,0.844,0.327,1.233c0.06-0.105,0.128-0.202,0.19-0.304   C7.897,12.711,7.812,12.404,7.812,12.08z" style="opacity:0.2;fill:#FFFFFF;"/><path d="M10.42,14.594c-0.644,0-1.237-0.25-1.778-0.709c-0.052,0.093-0.11,0.181-0.16,0.277   C9.063,14.713,9.713,15,10.42,15c3.274,0,6.08-4.79,6.08-8.71c0-0.015-0.014-0.024-0.016-0.038   C16.318,10.098,13.593,14.594,10.42,14.594z" style="opacity:0.1;"/><linearGradient gradientUnits="userSpaceOnUse" id="SVGID_2_" x1="1.4939" x2="20.7224" y1="6.6191" y2="15.5855"><stop offset="0" style="stop-color:#FFFFFF;stop-opacity:0.2"/><stop offset="1" style="stop-color:#FFFFFF;stop-opacity:0"/></linearGradient><path d="M20.667,3.028l-8.5-3c-0.107-0.038-0.226-0.038-0.333,0l-8.5,3C3.134,3.099,3,3.288,3,3.5v6   c0,7.765,1.151,10.603,8.775,14.446C11.846,23.982,11.923,24,12,24s0.154-0.018,0.225-0.054C19.849,20.103,21,17.265,21,9.5v-6   C21,3.288,20.866,3.099,20.667,3.028z" style="fill:url(#SVGID_2_);"/></g><g/><g/><g/><g/><g/><g/><g/><g/><g/><g/><g/><g/><g/><g/><g/></svg>