<?xml version="1.0" ?><svg id="Layer_1" style="enable-background:new 0 0 24 24;" version="1.1" viewBox="0 0 24 24" xml:space="preserve" xmlns="http://www.w3.org/2000/svg" xmlns:xlink="http://www.w3.org/1999/xlink"><g><path d="M20.921,1C12.351,1,2,7.093,2,14.66c0,1.23,0.327,2.384,0.964,3.453C1.741,19.952,1,21.541,1,22.5   C1,22.777,1.224,23,1.5,23S2,22.777,2,22.5c0-0.715,0.581-1.985,1.57-3.516c0.208,0.261,0.429,0.519,0.678,0.768   C5.739,21.243,7.452,22,9.339,22C16.906,22,23,11.648,23,3.079C23,1.932,22.067,1,20.921,1z" style="fill:#303C42;"/><path d="M9.339,21c-1.612,0-3.088-0.658-4.385-1.955c-0.302-0.302-0.565-0.614-0.797-0.935   c3.036-4.319,8.838-10.155,14.508-12.139c0.261-0.091,0.398-0.376,0.307-0.637c-0.091-0.26-0.376-0.397-0.637-0.307   C12.785,6.969,6.888,12.639,3.602,17.19C3.207,16.392,3,15.548,3,14.66C3,7.842,12.854,2,20.921,2C21.516,2,22,2.483,22,3.079   C22,11.146,16.158,21,9.339,21z" style="fill:#7CB342;"/><path d="M21.975,3.956" style="fill:#7CB342;"/><path d="M21.905,3.726C21.195,11.427,15.7,20,9.339,20c-1.612,0-3.088-0.658-4.385-1.955   c-0.097-0.097,8.344-9.843,13.71-11.72c0.261-0.091,0.398-0.376,0.307-0.637c-0.002-0.006-0.007-0.01-0.01-0.016   c-0.05,0.135-0.151,0.249-0.297,0.301c-5.447,1.906-11.008,7.363-14.13,11.619l0,0c-0.128,0.174-0.259,0.35-0.378,0.52   c0.232,0.32,0.496,0.633,0.797,0.935C6.251,20.342,7.727,21,9.339,21c6.573,0,12.237-9.157,12.636-17.043   C21.966,3.875,21.932,3.802,21.905,3.726z" style="opacity:0.1;"/><path d="M20.921,3c0.552,0,0.991,0.422,1.055,0.957C21.99,3.662,22,3.369,22,3.079   C22,2.483,21.516,2,20.921,2C12.854,2,3,7.842,3,14.66c0,0.146,0.014,0.29,0.025,0.434C3.549,8.522,13.078,3,20.921,3z" style="opacity:0.2;fill:#FFFFFF;"/><linearGradient gradientUnits="userSpaceOnUse" id="SVGID_1_" x1="3.9626" x2="19.3335" y1="8.5388" y2="15.7064"><stop offset="0" style="stop-color:#FFFFFF;stop-opacity:0.2"/><stop offset="1" style="stop-color:#FFFFFF;stop-opacity:0"/></linearGradient><path d="M20.921,1C12.351,1,2,7.093,2,14.66c0,1.23,0.327,2.384,0.964,3.453   C1.741,19.952,1,21.541,1,22.5C1,22.777,1.224,23,1.5,23S2,22.777,2,22.5c0-0.715,0.581-1.985,1.57-3.516   c0.208,0.261,0.429,0.519,0.678,0.768C5.739,21.243,7.452,22,9.339,22C16.906,22,23,11.648,23,3.079C23,1.932,22.067,1,20.921,1z" style="fill:url(#SVGID_1_);"/></g><g/><g/><g/><g/><g/><g/><g/><g/><g/><g/><g/><g/><g/><g/><g/></svg>