<?xml version="1.0" ?><svg id="Layer_1" style="enable-background:new 0 0 128 128;" version="1.1" viewBox="0 0 128 128" xml:space="preserve" xmlns="http://www.w3.org/2000/svg" xmlns:xlink="http://www.w3.org/1999/xlink"><style type="text/css">
	.st0{fill:#37C410;}
	.st1{fill:#FF4031;}
	.st2{fill:#FF554D;}
	.st3{fill:#FFD37B;}
	.st4{fill:#F4B251;}
	.st5{fill:#FFE2AE;}
	.st6{fill:none;stroke:#31352E;stroke-width:6;stroke-linecap:round;stroke-miterlimit:10;}
	.st7{fill:#CED8E0;}
	.st8{fill:#E0A4C0;}
	.st9{fill:#B7257F;}
	.st10{fill:#99266B;}
	.st11{fill:#D197B4;}
	.st12{fill:#98B7AD;}
	.st13{fill:#C1D1CC;}
	.st14{fill:#E0E0E0;}
	.st15{fill:#F8EBC8;}
	.st16{fill:#1EAAE1;}
	.st17{fill:#FFFFFF;}
	.st18{fill:#EAEAEA;}
	.st19{fill:#BCBCBC;}
	.st20{fill:#D8D8D8;}
	.st21{fill:#4C4C4C;}
	.st22{fill:#BCC0C1;}
	.st23{fill:#EFEFEF;}
	.st24{fill:#D1891B;}
	.st25{fill:#F0C71F;}
	.st26{fill:none;stroke:#31352E;stroke-width:6;stroke-miterlimit:10;}
	.st27{fill:#A05828;}
	.st28{fill:#8C4F26;}
	.st29{fill:#824B26;}
	.st30{fill:#FFD527;}
	.st31{fill:#E5E5E5;}
	.st32{fill:#C7D3BA;}
	.st33{fill:#E00505;}
	.st34{fill:#CE0505;}
	.st35{fill:#C40000;}
	.st36{fill:#339A01;}
	.st37{fill:#107400;}
	.st38{fill:none;stroke:#31352E;stroke-width:6;stroke-linecap:round;stroke-linejoin:round;stroke-miterlimit:10;}
	.st39{fill:#FED327;}
	.st40{fill:#FFB000;}
	.st41{fill:#F94343;}
	.st42{fill:#F73131;}
	.st43{fill:#D1D1CF;}
	.st44{fill:#F3F4EC;}
	.st45{fill:#E8AF3D;}
	.st46{fill:#FFC06C;}
	.st47{fill:#DD1741;}
	.st48{fill:#ED4848;}
	.st49{fill:#40AA1D;}
	.st50{fill:#2E991C;}
	.st51{fill:#EEEDEE;}
	.st52{fill:#D8D2D6;}
	.st53{fill:#AD6B3E;}
	.st54{fill:#E27933;}
	.st55{fill:#93603D;}
	.st56{fill:#F1EDE1;}
	.st57{fill:#F79704;}
	.st58{fill:none;stroke:#664E32;stroke-width:6;stroke-miterlimit:10;}
	.st59{fill:#FD6E06;}
	.st60{fill:#DBDBDB;}
	.st61{fill:#D52941;}
	.st62{fill:#E54E67;}
	.st63{fill:#C91C3A;}
	.st64{fill:#1B9B2D;}
	.st65{fill:#008837;}
	.st66{fill:#FF8C00;}
	.st67{fill:#FFAF00;}
	.st68{fill:#32AC00;}
	.st69{opacity:0.4;fill:#CCC0B2;}
	.st70{opacity:0.4;fill:#FFFFFF;}
	.st71{fill:#D3CA5B;}
	.st72{fill:#B9B740;}
	.st73{fill:#F8EBE0;}
	.st74{fill:#D8D8D8;stroke:#31352E;stroke-width:6;stroke-linecap:round;stroke-miterlimit:10;}
	.st75{fill:#E47722;}
	.st76{fill:#D3641A;}
	.st77{fill:#EF833A;}
	.st78{fill:none;stroke:#FFFFFF;stroke-width:6;stroke-linecap:round;stroke-miterlimit:10;}
	.st79{fill:#D8BFB2;}
	.st80{fill:#894E27;}
	.st81{fill:#AA6139;}
	.st82{opacity:0.5;fill:#FCCF5E;}
	.st83{fill:#31352E;}
	.st84{fill:none;stroke:#FFFFFF;stroke-width:6;stroke-linecap:round;stroke-linejoin:round;stroke-miterlimit:10;}
	.st85{fill:#FFAC3E;}
	.st86{fill:#83B713;}
	.st87{fill:#007A31;}
	.st88{fill:#E22020;stroke:#31352E;stroke-width:6;stroke-linecap:round;stroke-linejoin:round;stroke-miterlimit:10;}
	.st89{fill:#F2C315;}
	.st90{fill:#F7F7F7;}
	.st91{fill:#C0BFBD;}
	.st92{fill:#FFB600;}
	.st93{fill:#FEC311;}
	.st94{fill:#FFD939;}
	.st95{fill:#FFE783;}
	.st96{fill:#EB2224;}
	.st97{fill:#4F9611;}
	.st98{fill:#5B2929;}
	.st99{fill:#FFB206;}
	.st100{fill:#FF9F2C;}
	.st101{fill:#FF8812;}
	.st102{fill:#D1D1D1;}
	.st103{fill:none;stroke:#31352E;stroke-width:6;stroke-linejoin:round;stroke-miterlimit:10;}
	.st104{fill:#774829;}
	.st105{fill:#D88648;}
	.st106{fill:#E29854;}
	.st107{fill:#442617;}
	.st108{fill:#FFE200;}
	.st109{fill:#CA9C0A;}
	.st110{fill:#FFF186;}
	.st111{fill:#C6B054;}
	.st112{fill:#E2C340;}
	.st113{fill:#BA9E2A;}
	.st114{fill:#B45F0F;}
	.st115{fill:#9B4805;}
	.st116{fill:#BEF78B;}
	.st117{opacity:0.3;fill:#FFFFFF;}
	.st118{fill:#DD4B5F;}
	.st119{fill:#A6A69E;}
	.st120{fill:#C1C1C1;}
	.st121{fill:#DDDCD8;}
	.st122{fill:#E9E8E4;}
	.st123{fill:#E61E2B;}
	.st124{fill:#D81A2D;}
	.st125{fill:#F96B79;}
	.st126{fill:#F2E6D7;}
	.st127{fill:#4D3A34;}
	.st128{fill:#D8CCC0;}
	.st129{fill:#483632;}
	.st130{fill:#F2F2F2;}
	.st131{fill:#D6D0D0;}
	.st132{fill:#F6F1E7;}
	.st133{fill:#DCD5C6;}
	.st134{fill:#E5E1D8;}
	.st135{fill:#6B2CE5;stroke:#31352E;stroke-width:6;stroke-miterlimit:10;}
	.st136{fill:#B99CFF;}
	.st137{fill:#79B524;}
	.st138{fill:#629B00;}
	.st139{fill:#FF7B82;}
	.st140{fill:#F7CE21;}
	.st141{fill:#D8AE00;}
	.st142{fill:#FFDE52;}
	.st143{fill:#FB68C0;}
	.st144{fill:#FF9CE1;}
	.st145{fill:#FCB9EA;}
	.st146{fill:#F79635;}
	.st147{fill:#F04B1D;}
	.st148{fill:#3998C8;}
	.st149{fill:#E37D28;}
	.st150{fill:#9D338F;}
	.st151{fill:#3BA744;}
	.st152{fill:#E33499;}
	.st153{fill:#2AA0CE;}
	.st154{fill:#E2E2E2;}
	.st155{fill:#E6C286;}
	.st156{fill:#D8AF79;}
	.st157{fill:#654D2B;}
	.st158{fill:#97BA19;}
	.st159{fill:#8AB21B;}
	.st160{fill:#C5C3C4;}
	.st161{fill:#F2F1ED;}
	.st162{fill:#A7A5A6;}
	.st163{fill:#DDDDDD;}
	.st164{fill:#CC4611;}
	.st165{fill:#F21616;}
	.st166{fill:#F9B858;}
	.st167{fill:#FFD7A6;}
	.st168{fill:#E55C2C;}
	.st169{fill:#E55555;}
	.st170{fill:#52A01F;}
	.st171{fill:#7CCE46;}
	.st172{fill:#E8E8E8;}
	.st173{fill:#CECECE;}
	.st174{fill:#E7822A;}
	.st175{fill:#E8540A;}
	.st176{fill:#E5680C;}
	.st177{fill:#ED7524;}
	.st178{fill:#C4693A;}
	.st179{fill:#DDCAA4;}
	.st180{fill:#CD825A;}
	.st181{fill:#D8D8D8;stroke:#31352E;stroke-width:6;stroke-miterlimit:10;}
	.st182{fill:#CC9A56;}
	.st183{fill:#F9C639;}
	.st184{fill:#F7A014;}
	.st185{fill:#FFEB5A;}
	.st186{fill:#ED1B24;}
	.st187{fill:#ED2B42;}
	.st188{fill:#479C09;}
	.st189{fill:#3C8206;}
	.st190{fill:none;}
	.st191{fill:#54AF0C;}
	.st192{fill:#489B00;}
	.st193{fill:#D66316;}
	.st194{fill:#FF7C24;}
	.st195{fill:#E06714;}
	.st196{fill:#C9570A;}
	.st197{fill:#EF680C;}
	.st198{fill:#CBCBCB;}
	.st199{fill:#D3D3D3;}
	.st200{fill:#A8A8A8;}
	.st201{fill:#B5B5B5;}
	.st202{fill:#5C9314;}
	.st203{fill:#487212;}
	.st204{fill:#BDD130;}
	.st205{fill:#E1E366;}
	.st206{fill:#843B08;}
	.st207{fill:#AD6738;}
	.st208{fill:#E59F59;}
	.st209{fill:#F2AF72;}
	.st210{fill:#BA7D4F;}
	.st211{fill:#EFAB64;}
	.st212{fill:#FDAB19;}
	.st213{fill:#F23838;}
	.st214{fill:#F4635B;}
	.st215{fill:#F7683C;}
	.st216{fill:#F4896C;}
	.st217{fill:#E4C072;}
	.st218{fill:#C1A657;}
	.st219{fill:#9B8245;}
	.st220{fill:#FEB041;}
	.st221{fill:#EB8226;}
	.st222{fill:#F7C28E;}
</style><path class="st61" d="M22.9,34.5c19.2-19.2,50.4-19.2,69.7,0s19.2,50.4,0,69.7s-65.6,13.8-74.5,4.8S3.7,53.7,22.9,34.5z"/><ellipse class="st62" cx="47.1" cy="47" rx="26.5" ry="19.5" transform="matrix(0.8247 -0.5656 0.5656 0.8247 -18.3018 34.8717)"/><path class="st63" d="M92.6,34.5c-1.7-1.7-3.6-3.3-5.5-4.7c10.1,15,5.2,39.1-12.3,56.7c-16.3,16.3-47.4,19.6-60.5,16.1  c1.1,2.8,2.4,5.1,3.7,6.4c8.9,8.9,55.3,14.4,74.5-4.8C111.9,84.9,111.9,53.7,92.6,34.5z"/><path class="st26" d="M22.9,34.5c19.2-19.2,50.4-19.2,69.7,0s19.2,50.4,0,69.7s-65.6,13.8-74.5,4.8S3.7,53.7,22.9,34.5z"/><path class="st86" d="M93.7,35.3c0,0-5.3-15.8-17.2-22.1c-12-6.3-27.1-1.5-27.1-1.5s2.1,7.4,7.5,14C49,29,43.6,34.5,43.6,34.5  s10.2,10.5,23,11.3c-7.9,9.6-7.7,23.6-7.7,23.6s13.9,0.2,23.6-7.7c0.8,12.9,11.3,23,11.3,23s5.5-5.4,8.9-13.3  c6.7,5.5,14.2,7.7,14.2,7.7s5-15.1-1.4-27.1C109.2,40.1,93.7,35.3,93.7,35.3z"/><path class="st64" d="M93.7,35.3c0,0-5.3-15.8-17.2-22.1c-12-6.3-27.1-1.5-27.1-1.5s2.1,7.4,7.5,14C49,29,43.6,34.5,43.6,34.5  s10.2,10.5,23,11.3c-7.9,9.6-7.7,23.6-7.7,23.6s13.9,0.2,23.6-7.7c0.2,4,1.4,7.7,2.9,11c8.4-15,9.4-31.5,1.7-42.8  c1.9,1.4,3.7,3,5.5,4.7c0.3,0.3,0.7,0.7,1,1.1L93.7,35.3C93.7,35.3,93.7,35.3,93.7,35.3z"/><path class="st87" d="M115.5,52.1C109.3,40.2,94,35.4,93.7,35.3l-0.1,0.3c10.2,10.8,14.6,25.1,13.2,38.9c5.3,3.3,10.1,4.8,10.1,4.8  S121.9,64.1,115.5,52.1z"/><path class="st65" d="M92.6,34.5c-1.7-1.7-3.6-3.3-5.5-4.7c7.6,11.3,6.7,27.9-1.7,42.8c3.4,7.2,8.4,12.1,8.4,12.1s5.5-5.4,8.9-13.3  c1.4,1.1,2.8,2.1,4.1,3C108.2,60.2,103.5,45.4,92.6,34.5z"/><path class="st38" d="M93.7,35.3c0,0-5.3-15.8-17.2-22.1c-12-6.3-27.1-1.5-27.1-1.5s2.1,7.4,7.5,14C49,29,43.6,34.5,43.6,34.5  s10.2,10.5,23,11.3c-7.9,9.6-7.7,23.6-7.7,23.6s13.9,0.2,23.6-7.7c0.8,12.9,11.3,23,11.3,23s5.5-5.4,8.9-13.3  c6.7,5.5,14.2,7.7,14.2,7.7s5-15.1-1.4-27.1C109.2,40.1,93.7,35.3,93.7,35.3z"/><path class="st88" d="M86.1,41c0,0,16.9-10.3,20.1-25.3"/><ellipse class="st89" cx="44.2" cy="52.2" rx="3.3" ry="4" transform="matrix(0.7071 0.7071 -0.7071 0.7071 49.8267 -15.9633)"/><ellipse class="st89" cx="41" cy="69.8" rx="3.3" ry="4" transform="matrix(0.7071 0.7071 -0.7071 0.7071 61.3499 -8.5357)"/><ellipse class="st89" cx="57" cy="85.8" rx="3.3" ry="4" transform="matrix(0.7071 0.7071 -0.7071 0.7071 77.3713 -15.172)"/><ellipse class="st89" cx="72.2" cy="101" rx="3.3" ry="4" transform="matrix(0.7071 0.7071 -0.7071 0.7071 92.5916 -21.4765)"/><ellipse class="st89" cx="26.6" cy="55.4" rx="3.3" ry="4" transform="matrix(0.7071 0.7071 -0.7071 0.7071 46.9306 -2.5631)"/><ellipse class="st89" cx="39.4" cy="89" rx="3.3" ry="4" transform="matrix(0.7071 0.7071 -0.7071 0.7071 74.4753 -1.7718)"/><ellipse class="st89" cx="27.4" cy="101" rx="3.3" ry="4" transform="matrix(0.7071 0.7071 -0.7071 0.7071 79.4525 10.2443)"/><ellipse class="st89" cx="53.8" cy="103.4" rx="3.3" ry="4" transform="matrix(0.7071 0.7071 -0.7071 0.7071 88.8945 -7.7444)"/><ellipse class="st89" cx="24.2" cy="73.8" rx="3.3" ry="4" transform="matrix(0.7071 0.7071 -0.7071 0.7071 59.2549 4.5327)"/><ellipse class="st89" cx="74.6" cy="82.6" rx="3.3" ry="4" transform="matrix(0.7071 0.7071 -0.7071 0.7071 80.2673 -28.5723)"/></svg>